<svg id="Layer_1" data-name="Layer 1" xmlns="http://www.w3.org/2000/svg" width="542" height="122" viewBox="0 0 542 122"><defs><style>.cls-1{fill:#c859a0;}.cls-1,.cls-2,.cls-3,.cls-4,.cls-5,.cls-6,.cls-7,.cls-8{fill-rule:evenodd;}.cls-2{fill:#5160ab;}.cls-3{fill:#0079c0;}.cls-4{fill:#00adee;  stroke:#fff; stroke-opacity: 0.5;}.cls-5{fill:#6cb33f;}.cls-6{fill:#c0d72f;}.cls-7{fill:#f48020;}.cls-8{fill:#f05623;}.cls-9{fill:#fff;}</style></defs><title>Artboard 1</title><path class="cls-1" d="M49.88,16.88a13,13,0,1,1,17,12.46V61.05c0,.12-.18.21-.4.21H59.34c-.22,0-.4-.1-.4-.21V29.34A13.06,13.06,0,0,1,49.88,16.88Z"/><path class="cls-2" d="M22.32,39.1a13,13,0,1,1,20.85-3.23L65.6,58.3c.08.08,0,.27-.13.43L60.38,63.8c-.15.15-.35.22-.43.13L37.53,41.51A13,13,0,0,1,22.32,39.1Z"/><path class="cls-3" d="M18.54,74.31A13,13,0,1,1,31,57.28H62.71c.12,0,.21.18.21.4v7.19c0,.22-.1.4-.21.4H31A13.05,13.05,0,0,1,18.54,74.31Z"/><path class="cls-4" d="M40.77,101.88A13,13,0,1,1,37.53,81L60,58.59c.08-.08.27,0,.43.14l5.08,5.07c.16.16.21.35.13.43L43.17,86.66A13.06,13.06,0,0,1,40.77,101.88Z"/><path class="cls-5" d="M76,105.65a13,13,0,1,1-17-12.46V61.48c0-.12.18-.21.4-.21h7.18c.22,0,.4.09.4.21V93.19A13.06,13.06,0,0,1,76,105.65Z"/><path class="cls-6" d="M103.53,83.42a13,13,0,1,1-20.85,3.23L60.26,64.23c-.08-.08,0-.28.13-.43l5.08-5.08c.16-.16.35-.21.43-.13L88.32,81A13.05,13.05,0,0,1,103.53,83.42Z"/><path class="cls-7" d="M107.31,48.22a13,13,0,1,1-12.46,17H63.14c-.11,0-.21-.17-.21-.4V57.67c0-.22.1-.4.21-.4H94.85A13.05,13.05,0,0,1,107.31,48.22Z"/><path class="cls-8" d="M85.09,20.66a13,13,0,1,1,3.24,20.85L65.89,63.94c-.08.08-.27,0-.43-.14l-5.08-5.08c-.16-.16-.21-.35-.13-.43L82.68,35.87A13,13,0,0,1,85.09,20.66Z"/><path class="cls-4" d="M49.58,61.23a14.08,14.08,0,1,1,14,14.12A14.08,14.08,0,0,1,49.58,61.23Z"/><path class="cls-9" d="M259.37,80.5V74.86h4.42V48.75h-8.45v3.61H249V42.43h38v9.92h-6.32V48.75h-8.6V74.86h4.41V80.5Z"/><path class="cls-9" d="M421.47,80.5V74.86h3.63V48.67h-3.63V42.43H451v9.84h-6.29v-3.6H433.4v26.2H437V80.5Z"/><path class="cls-9" d="M526,80.5V66.87h-7.92l-5.3,10.43-2.51,3.2H502.4V74.86h3.48l5-9.52c-5.71-2-8.12-5.73-8.12-10.84,0-7.27,4.92-12.08,16-12.08h19.16v6.23h-3.63v26.2h3.63V80.5Zm-7.54-19H526V48.67h-6.4c-6.09,0-8.85,2.27-8.85,6C510.74,59.23,513.73,61.47,518.45,61.47Z"/><path class="cls-9" d="M396.59,41.1c11.5,0,20.79,8.45,20.79,20.1s-9.29,20.25-20.79,20.25S375.8,72.92,375.8,61.2,385.09,41.1,396.59,41.1Zm0,34c7.23,0,13.25-5.79,13.25-13.86s-6-13.7-13.25-13.7-13.25,5.71-13.25,13.7S389.28,75.06,396.59,75.06Z"/><path class="cls-9" d="M309.88,41.1c11.5,0,20.79,8.45,20.79,20.1s-9.29,20.25-20.79,20.25-20.79-8.53-20.79-20.25S298.38,41.1,309.88,41.1Zm0,34c7.23,0,13.25-5.79,13.25-13.86s-6-13.7-13.25-13.7-13.25,5.71-13.25,13.7S302.57,75.06,309.88,75.06Z"/><path class="cls-9" d="M368.37,74.86V42.43H339v6.23h3.49c-.8,18.52-1.64,25.42-10.52,25.42v6.64c.38,0,1.55,0,1.91,0,11.24,0,15.13-8.45,15.83-32H360V74.86h-3.59V80.5H372V74.86Z"/><path class="cls-9" d="M236.57,70.08a13.13,13.13,0,0,1-23.25-6h33.25c1.59-11.7-6.47-23-20.27-23-11.49,0-20.55,8.45-20.55,20.1s9.06,20.25,20.55,20.25a20.51,20.51,0,0,0,18.77-11.37ZM226.31,47.49A13.12,13.12,0,0,1,239.22,58H213.4A13.06,13.06,0,0,1,226.31,47.49Z"/><polygon class="cls-9" points="184.53 42.43 184.53 42.44 184.46 42.44 184.46 48.08 188.03 48.08 188.03 57.96 170.29 57.96 170.29 42.43 158.38 42.43 158.38 42.44 158.38 47.19 158.38 48.08 161.99 48.08 161.99 74.86 158.38 74.86 158.38 80.5 173.95 80.5 173.95 74.86 170.29 74.86 170.29 63.9 188.03 63.9 188.03 80.5 199.99 80.5 199.99 74.86 199.99 74.85 196.33 74.85 196.33 48.08 199.99 48.08 199.99 47.14 199.99 42.44 199.99 42.43 184.53 42.43"/><polygon class="cls-9" points="493.28 74.84 493.28 42.43 485.59 42.43 466.1 68.09 466.1 48.08 469.72 48.08 469.72 42.44 454.19 42.43 454.19 42.44 454.19 48.08 457.8 48.08 457.8 80.5 463.89 80.5 463.97 80.34 484.9 53.01 484.9 74.84 481.4 74.84 481.4 80.48 496.94 80.5 496.94 80.48 496.94 74.86 496.94 74.84 493.28 74.84"/><path class="cls-9" d="M158.75,99h2.59V110.4h6.3V99h2.59V110.4h2.26v5.85h-2.44v-3.48h-11.3Z"/><path class="cls-9" d="M177.57,107a4.72,4.72,0,0,0,4.53,3.76,4.4,4.4,0,0,0,3.93-2.31h2.59a7,7,0,0,1-6.62,4.68,7.19,7.19,0,0,1-7-7.27,7,7,0,1,1,14.09-.17c0,.47-.05,1.14-.08,1.32Zm8.91-2a4.48,4.48,0,0,0-8.91,0Z"/><path class="cls-9" d="M202.26,104.65V99h2.59v13.79h-2.59V107h-6.77v5.75H192.9V99h2.59v5.67Z"/><path class="cls-9" d="M214.15,101.34v11.42h-2.58V101.34H208V99h9.66v2.37Z"/><path class="cls-9" d="M220.88,99h2.36v2.12h0a5.83,5.83,0,0,1,4.9-2.49c4.68,0,7.14,3.76,7.14,7.44a6.93,6.93,0,0,1-7,7.07,5.4,5.4,0,0,1-4.85-2.34h0v6.59h-2.59Zm7.14,2a4.9,4.9,0,0,0,.07,9.78,4.69,4.69,0,0,0,4.66-4.85A4.88,4.88,0,0,0,228,101Z"/><path class="cls-9" d="M254.5,113.11a7.26,7.26,0,1,1,0-14.51,7.32,7.32,0,0,1,7.44,7.22A7.42,7.42,0,0,1,254.5,113.11Zm0-12.14a4.89,4.89,0,1,0,4.85,4.85A4.85,4.85,0,0,0,254.5,101Z"/><path class="cls-9" d="M275.13,104.65V99h2.59v13.79h-2.59V107h-6.77v5.75h-2.59V99h2.59v5.67Z"/><path class="cls-9" d="M283.55,112.76h-2.73L286.11,99h2.44l5.3,13.79h-2.74l-3.76-10h-.05Z"/><path class="cls-9" d="M307.86,112.76v-2.14h0a5.25,5.25,0,0,1-4.68,2.49,7,7,0,0,1-7.32-7.19,7.15,7.15,0,0,1,7.32-7.32,5.47,5.47,0,0,1,4.68,2.31h0V99h2.59v13.79ZM303.13,101a4.89,4.89,0,1,0,4.78,4.93A4.72,4.72,0,0,0,303.13,101Z"/><path class="cls-9" d="M315,112.76V99h2.59v9.68L324.51,99h2.42v13.79h-2.59v-9.71l-6.94,9.71ZM325,94.17a4.85,4.85,0,0,1-1.12,2.24,4,4,0,0,1-3,1.12,4,4,0,0,1-3-1.12,4.92,4.92,0,0,1-1.12-2.24h2.19a2,2,0,0,0,.55,1.1,2.16,2.16,0,0,0,2.69,0,2,2,0,0,0,.55-1.1Z"/><path class="cls-9" d="M340.82,104.65V99h2.59v13.79h-2.59V107H334v5.75h-2.59V99H334v5.67Z"/><path class="cls-9" d="M347.66,106.86v-2.59h7v2.59Z"/><path class="cls-9" d="M365.63,113.11a7.26,7.26,0,1,1,0-14.51,7.32,7.32,0,0,1,7.44,7.22A7.42,7.42,0,0,1,365.63,113.11Zm0-12.14a4.89,4.89,0,1,0,4.85,4.85A4.85,4.85,0,0,0,365.63,101Z"/><path class="cls-9" d="M390,96.69c-1.27.17-4.53.2-5.77.32-2.81.28-5.3,1.84-5.7,5.45h.1a5.66,5.66,0,0,1,2-2.12,6.56,6.56,0,0,1,3.46-1,6.9,6.9,0,0,1,4.8,1.84,6.63,6.63,0,0,1,2,4.83,7.26,7.26,0,0,1-1.94,5,7.62,7.62,0,0,1-5.3,2.12,6.72,6.72,0,0,1-4.93-2,10.3,10.3,0,0,1-2.26-6.79c0-5.65,2.39-9,7.59-9.53,2.61-.27,4.48-.32,5.95-.5Zm-2.89,6.42a4.84,4.84,0,0,0-3.46-1.37,4.1,4.1,0,0,0-3,1.27,4.78,4.78,0,0,0-1.27,3.23,4.38,4.38,0,0,0,4.48,4.51,4.29,4.29,0,0,0,3.11-1.29,4.88,4.88,0,0,0,1.34-3.34A4.18,4.18,0,0,0,387.13,103.11Z"/><path class="cls-9" d="M394.75,99h2.37v2.12h0a5.83,5.83,0,0,1,4.9-2.49c4.68,0,7.15,3.76,7.15,7.44a6.94,6.94,0,0,1-7,7.07,5.41,5.41,0,0,1-4.86-2.34h0v6.59h-2.59Zm7.14,2a4.9,4.9,0,0,0,.08,9.78,4.69,4.69,0,0,0,4.65-4.85A4.88,4.88,0,0,0,401.89,101Z"/><path class="cls-9" d="M424.39,112.76v-2.14h0a5.24,5.24,0,0,1-4.68,2.49,7,7,0,0,1-7.32-7.19,7.15,7.15,0,0,1,7.32-7.32,5.47,5.47,0,0,1,4.68,2.31h0V99H427v13.79ZM419.67,101a4.89,4.89,0,1,0,4.78,4.93A4.72,4.72,0,0,0,419.67,101Z"/><path class="cls-9" d="M431,102.68a5,5,0,0,1,1.44-2.76,4.81,4.81,0,0,1,3.51-1.32,4.67,4.67,0,0,1,3.41,1.24,3.76,3.76,0,0,1,1.09,2.71,3.91,3.91,0,0,1-.42,1.79,3.29,3.29,0,0,1-1.09,1.17,4.06,4.06,0,0,1,1.47,1.24,3.15,3.15,0,0,1,.6,1.89,4.43,4.43,0,0,1-1.22,3.06,5.37,5.37,0,0,1-3.86,1.39,4.78,4.78,0,0,1-3.81-1.37,6,6,0,0,1-1.49-3.29h2.58a2.62,2.62,0,0,0,1.1,1.87,2.83,2.83,0,0,0,1.59.42,2.61,2.61,0,0,0,1.89-.65,1.84,1.84,0,0,0,.52-1.34,1.72,1.72,0,0,0-.47-1.22,3.32,3.32,0,0,0-2.32-.67h-.6V104.5h.42a2.83,2.83,0,0,0,2-.55,1.75,1.75,0,0,0,.47-1.2,1.86,1.86,0,0,0-.52-1.29,2.39,2.39,0,0,0-1.54-.5,2.11,2.11,0,0,0-1.62.6,3.1,3.1,0,0,0-.6,1.12Z"/><path class="cls-9" d="M451.37,113.11a7.26,7.26,0,1,1,0-14.51,7.32,7.32,0,0,1,7.44,7.22A7.42,7.42,0,0,1,451.37,113.11Zm0-12.14a4.89,4.89,0,1,0,4.85,4.85A4.84,4.84,0,0,0,451.37,101Z"/><path class="cls-9" d="M467.15,99a5,5,0,0,1,3.79,1.24,3.54,3.54,0,0,1,1,2.49,3.27,3.27,0,0,1-.57,1.82,2.87,2.87,0,0,1-.87,1,4,4,0,0,1,1.32.9,3.25,3.25,0,0,1,.92,2.39,3.87,3.87,0,0,1-1,2.64c-1.1,1.2-2.64,1.35-4.73,1.35h-4.41V99Zm.18,5.77a2.08,2.08,0,0,0,1.59-.57,1.87,1.87,0,0,0,.47-1.32,1.67,1.67,0,0,0-.45-1.2,2.09,2.09,0,0,0-1.59-.57h-2.12v3.66Zm-2.09,5.9h2.51a2.92,2.92,0,0,0,1.79-.45,1.75,1.75,0,0,0,.65-1.47,1.8,1.8,0,0,0-.53-1.37,3,3,0,0,0-2-.6h-2.41Z"/><path class="cls-9" d="M487.81,112.76v-2.14h-.05a5.24,5.24,0,0,1-4.68,2.49,7,7,0,0,1-7.32-7.19,7.14,7.14,0,0,1,7.32-7.32,5.46,5.46,0,0,1,4.68,2.31h.05V99h2.59v13.79ZM483.08,101a4.89,4.89,0,1,0,4.78,4.93A4.72,4.72,0,0,0,483.08,101Z"/><path class="cls-9" d="M504.29,104.65V99h2.59v13.79h-2.59V107h-6.77v5.75h-2.59V99h2.59v5.67Z"/><path class="cls-9" d="M511.4,112.76V99H514v9.68L520.94,99h2.41v13.79h-2.59v-9.71l-6.94,9.71Z"/><path class="cls-9" d="M537.89,112.76h-2.59v-6.37h0l-5.3,6.37h-3l4.21-4.93a4.69,4.69,0,0,1-2.91-1.22,4.17,4.17,0,0,1-1.12-3,4.58,4.58,0,0,1,1.27-3.21c1.3-1.32,3.24-1.44,4.7-1.44h4.75Zm-2.59-11.42h-3a2.72,2.72,0,0,0-1.92.72,2.26,2.26,0,0,0-.62,1.64,2.1,2.1,0,0,0,.65,1.57,3.67,3.67,0,0,0,2.44.75h2.46Z"/></svg>